# xmcd
#
# Track frame offsets: 
#        150
#        10637
#        25707
#        39127
#        52430
#        64620
#        77267
#        94177
#        105347
#        120852
#        131032
#        141830
#        153720
#        169792
#        190645
#        202667
#
# Disc length: 2897 seconds
#
# Revision: 0
# Processed by: cddbd v1.5.2PL0 Copyright (c) Steve Scherf et al.
# Submitted via: ExactAudioCopy v0.90a11
#
DISCID=bc0b4f10
DTITLE=O Melhor do Fama - 2002 - cd 01 - O Melhor do Fama - 2002 - cd 
DTITLE=01
DYEAR=1900
DGENRE=
TTITLE0=Luz do Sol  - João Batista  - Adelmo Casé
TTITLE1=A Lenda  - Vanessa Jackson
TTITLE2=El Dia que Me Quieras  - Nalanda
TTITLE3=A Lua que Eu Te Dei  - Andrea Marquee
TTITLE4=Garganta  - Fael Mondego
TTITLE5=Sá Marina  - Adelmo Casé
TTITLE6=Porto Solidão  - Kíldere
TTITLE7=Maresia  - Lívia Leite
TTITLE8=Lady Marmalade  - Ana Luíza  - Vanessa Jackson  - Nalanda
TTITLE9=Livin' La Vida Loca  - Andrea Marquee  - Adelmo Casé
TTITLE10=Fim de Tarde  - Rodriggo
TTITLE11=Que Pena (ela Já Não Gosta Mais de Mim)  - Fael Mondego  - Ju
TTITLE11=liano Cortuah
TTITLE12=Um Sonhador  - Tonny Francis
TTITLE13=Força Estranha  - João Batista
TTITLE14=Epitáfio  - Ana Luíza  - Juliano Cortuah
TTITLE15=Como Nossos Pais  - Vanessa Jackson
EXTD=
EXTT0=
EXTT1=
EXTT2=
EXTT3=
EXTT4=
EXTT5=
EXTT6=
EXTT7=
EXTT8=
EXTT9=
EXTT10=
EXTT11=
EXTT12=
EXTT13=
EXTT14=
EXTT15=
PLAYORDER=
